<svg width="2842" height="716" viewBox="0 0 2842 716" fill="none" xmlns="http://www.w3.org/2000/svg">
<path d="M0.789063 543C0.789063 644 75.7891 716 179.789 716C254.789 716 300.789 684 333.789 624L361.789 708H500.789C483.789 693 465.789 662 446.789 612C425.789 556 353.789 358 326.789 291C297.789 219 241.789 200 195.789 200C160.789 200 123.789 211 95.7891 229L96.7891 231C130.789 223 171.789 228 194.789 262C222.789 300 282.789 477 328.789 612C305.789 637 272.789 648 241.789 648C152.789 648 105.789 575 105.789 481C105.789 386 161.789 320 194.789 293C76.7891 344 0.789063 430 0.789063 543ZM457.82 271C480.82 289 503.82 339 503.82 425V520C503.82 662 561.82 716 658.82 716C717.82 716 778.82 681 810.82 642L809.82 708H967.82C942.82 687 917.82 629 917.82 533V200L766.82 267V271C789.82 289 812.82 339 812.82 425L810.82 622C783.82 650 748.82 672 705.82 672C637.82 672 608.82 624 608.82 507V200L457.82 267V271ZM972.187 243C1048.19 243 1104.19 278 1101.19 384L1095.19 708H1253.19C1228.19 687 1206.19 629 1206.19 533V243H1316.19V235C1180.19 235 1080.19 149 1080.19 60C1080.19 31.9999 1090.19 17.9999 1108.19 17.9999C1151.19 17.9999 1178.19 88 1316.19 183V66C1291.19 62 1240.19 53 1197.19 35.9999C1146.19 16 1103.19 -4.29153e-06 1061.19 -4.29153e-06C1018.19 -4.29153e-06 972.187 21 972.187 68.9999C972.187 144 1105.19 214 1189.19 235H972.187V243ZM1334.77 86C1357.77 104 1381.77 149 1380.77 236L1374.77 708L1484.77 651C1507.77 673 1561.77 716 1634.77 716C1727.77 716 1845.77 636 1845.77 451C1845.77 282 1741.77 200 1636.77 200C1562.77 200 1506.77 246 1485.77 283V7.99995L1334.77 82V86ZM1485.77 303C1502.77 269 1545.77 236 1587.77 236C1667.77 236 1730.77 312 1731.77 461C1731.77 611 1662.77 679 1591.77 679C1540.77 679 1505.77 651 1485.77 632V303ZM1874.81 543C1874.81 644 1949.81 716 2053.81 716C2128.81 716 2174.81 684 2207.81 624L2235.81 708H2374.81C2357.81 693 2339.81 662 2320.81 612C2299.81 556 2227.81 358 2200.81 291C2171.81 219 2115.81 200 2069.81 200C2034.81 200 1997.81 211 1969.81 229L1970.81 231C2004.81 223 2045.81 228 2068.81 262C2096.81 300 2156.81 477 2202.81 612C2179.81 637 2146.81 648 2115.81 648C2026.81 648 1979.81 575 1979.81 481C1979.81 386 2035.81 320 2068.81 293C1950.81 344 1874.81 430 1874.81 543ZM2331.84 271C2354.84 289 2377.84 339 2377.84 425V520C2377.84 662 2435.84 716 2532.84 716C2591.84 716 2652.84 681 2684.84 642L2683.84 708H2841.84C2816.84 687 2791.84 629 2791.84 533V200L2640.84 267V271C2663.84 289 2686.84 339 2686.84 425L2684.84 622C2657.84 650 2622.84 672 2579.84 672C2511.84 672 2482.84 624 2482.84 507V200L2331.84 267V271Z" fill="#232323"/>
</svg>
